<svg width="30" height="30" viewBox="0 0 30 30" fill="none" xmlns="http://www.w3.org/2000/svg">
<path d="M2.99992 0.333496C1.52659 0.333496 0.333252 1.52683 0.333252 3.00016V27.0002C0.333252 28.4735 1.52659 29.6668 2.99992 29.6668H26.9999C28.4733 29.6668 29.6666 28.4735 29.6666 27.0002V3.00016C29.6666 1.52683 28.4733 0.333496 26.9999 0.333496H2.99992ZM6.53117 7.00016H12.6796L16.2681 12.1304L20.7083 7.00016H22.6431L17.1379 13.3752L23.8723 23.0002H17.7239L13.7421 17.3075L8.82544 23.0002H6.85929L12.8671 16.0601L6.53117 7.00016ZM9.50513 8.57829L18.5103 21.4142H20.8958L11.8879 8.57829H9.50513Z" fill="black"/>
</svg>
