<svg width="36" height="30" viewBox="0 0 36 30" fill="none" xmlns="http://www.w3.org/2000/svg">
<path d="M18.0001 0.333496C12.4187 0.333496 5.17456 1.73193 5.17456 1.73193L5.15633 1.75277C2.6143 2.15932 0.666748 4.34366 0.666748 7.00016V15.0002V15.0028V23.0002V23.0028C0.669229 24.2715 1.12391 25.4978 1.94915 26.4614C2.77438 27.4251 3.91612 28.063 5.16935 28.2606L5.17456 28.2684C5.17456 28.2684 12.4187 29.6694 18.0001 29.6694C23.5814 29.6694 30.8256 28.2684 30.8256 28.2684L30.8282 28.2658C32.0828 28.0686 33.2258 27.4302 34.0517 26.4654C34.8776 25.5006 35.3321 24.2728 35.3334 23.0028V23.0002V15.0028V15.0002V7.00016C35.3316 5.731 34.8772 4.5041 34.0519 3.53991C33.2266 2.57571 32.0845 1.93743 30.8308 1.73975L30.8256 1.73193C30.8256 1.73193 23.5814 0.333496 18.0001 0.333496ZM14.0001 8.86475L24.6667 15.0002L14.0001 21.1356V8.86475Z" fill="black"/>
</svg>
